<?xml version="1.0" encoding="UTF-8" standalone="no"?>
<!-- Created with Inkscape (http://www.inkscape.org/) -->
<svg
   xmlns:dc="http://purl.org/dc/elements/1.1/"
   xmlns:cc="http://creativecommons.org/ns#"
   xmlns:rdf="http://www.w3.org/1999/02/22-rdf-syntax-ns#"
   xmlns:svg="http://www.w3.org/2000/svg"
   xmlns="http://www.w3.org/2000/svg"
   xmlns:sodipodi="http://sodipodi.sourceforge.net/DTD/sodipodi-0.dtd"
   xmlns:inkscape="http://www.inkscape.org/namespaces/inkscape"
   width="100"
   height="100"
   id="svg3100"
   sodipodi:version="0.32"
   inkscape:version="0.46"
   version="1.0"
   sodipodi:docbase="/home/glubo/src/pipemania/design1"
   sodipodi:docname="endc.svg"
   inkscape:output_extension="org.inkscape.output.svg.inkscape">
  <defs
     id="defs3102">
    <inkscape:perspective
       sodipodi:type="inkscape:persp3d"
       inkscape:vp_x="0 : 50 : 1"
       inkscape:vp_y="0 : 1000 : 0"
       inkscape:vp_z="100 : 50 : 1"
       inkscape:persp3d-origin="50 : 33.333333 : 1"
       id="perspective2649" />
  </defs>
  <sodipodi:namedview
     id="base"
     pagecolor="#ffffff"
     bordercolor="#666666"
     borderopacity="1.0"
     inkscape:pageopacity="0.0"
     inkscape:pageshadow="2"
     inkscape:zoom="5.6"
     inkscape:cx="67.356985"
     inkscape:cy="40.952638"
     inkscape:document-units="px"
     inkscape:current-layer="layer1"
     showgrid="true"
     inkscape:window-width="797"
     inkscape:window-height="800"
     inkscape:window-x="48"
     inkscape:window-y="0" />
  <metadata
     id="metadata3105">
    <rdf:RDF>
      <cc:Work
         rdf:about="">
        <dc:format>image/svg+xml</dc:format>
        <dc:type
           rdf:resource="http://purl.org/dc/dcmitype/StillImage" />
      </cc:Work>
    </rdf:RDF>
  </metadata>
  <g
     inkscape:label="Layer 1"
     inkscape:groupmode="layer"
     id="layer1">
    <path
       sodipodi:type="arc"
       style="fill:#0fb80f;fill-opacity:1;stroke:none;stroke-width:0.99719513px;stroke-linejoin:miter;stroke-miterlimit:4;stroke-dasharray:none;stroke-opacity:1;opacity:1;color:#000000;fill-rule:evenodd;stroke-linecap:butt;marker:none;marker-start:none;marker-mid:none;marker-end:none;stroke-dashoffset:0;visibility:visible;display:inline;overflow:visible;enable-background:accumulate"
       id="path4081"
       sodipodi:cx="69.44799"
       sodipodi:cy="36.612926"
       sodipodi:rx="19.697975"
       sodipodi:ry="19.192898"
       d="M 89.145966 36.612926 A 19.697975 19.192898 0 1 1  49.750015,36.612926 A 19.697975 19.192898 0 1 1  89.145966 36.612926 z"
       transform="matrix(0.99009,0,0,1.015699,-18.76452,12.80759)" />
    <path
       sodipodi:nodetypes="ccccc"
       id="path3098"
       d="M 45.005076,40.027295 L 55.005076,40.027295 L 55.005076,100 L 45.005076,100 L 45.005076,40.027295 z"
       style="fill:#0fb80f;fill-opacity:1;fill-rule:evenodd;stroke:none;stroke-width:1px;stroke-linecap:butt;stroke-linejoin:miter;stroke-opacity:1;opacity:1;color:#000000;marker:none;marker-start:none;marker-mid:none;marker-end:none;stroke-miterlimit:4;stroke-dasharray:none;stroke-dashoffset:0;visibility:visible;display:inline;overflow:visible;enable-background:accumulate" />
    <path
       style="fill:#3532ae;fill-opacity:1;fill-rule:evenodd;stroke:#00008c;stroke-width:1px;stroke-linecap:butt;stroke-linejoin:miter;stroke-opacity:1"
       d="M 40,27.5 C 31.595417,31.431046 25.75,40.081319 25.75,50.125 C 25.75,60.173822 31.58961,68.830027 40,72.75 L 40,94.96875 L 35,94.96875 L 35,99.4375 L 45,99.4375 L 45,74.4375 C 45.043109,74.446937 45.081807,74.459544 45.125,74.46875 L 45.125,69.34375 C 36.774424,67.09222 30.625,59.347893 30.625,50.125 C 30.625001,40.908807 36.782891,33.135822 45.125,30.875 L 55.125,30.90625 C 63.475578,33.157779 69.625,40.902106 69.625,50.125 C 69.625,59.347892 63.475577,67.092222 55.125,69.34375 L 55.125,73.78125 C 55.081237,73.790604 55.043831,73.803346 55,73.8125 L 55,99.4375 L 65,99.4375 L 65,94.96875 L 60,94.96875 L 60,72.84375 C 68.536586,68.976517 74.499997,60.26743 74.5,50.125 C 74.5,39.982569 68.536587,31.273481 60,27.40625 L 40,27.5 z"
       id="path3096"
       sodipodi:nodetypes="csccccccccsccsccccccccscc" />
  </g>
</svg>
